<svg width="32" height="32" viewBox="0 0 32 32" fill="none" xmlns="http://www.w3.org/2000/svg">
<circle cx="15.61" cy="15.61" r="15.61" fill="#181818"/>
<path d="M12.6852 20.4408H18.4033M12.6852 16.6287H18.4033M12.6852 12.8166H13.6382M16.4973 7.09843H11.9227C10.8552 7.09843 10.3215 7.09843 9.91377 7.30617C9.55513 7.48892 9.26354 7.78051 9.08079 8.13915C8.87305 8.54688 8.87305 9.08063 8.87305 10.1481V21.2033C8.87305 22.2708 8.87305 22.8045 9.08079 23.2122C9.26354 23.5709 9.55513 23.8625 9.91377 24.0452C10.3215 24.253 10.8552 24.253 11.9227 24.253H19.1658C20.2333 24.253 20.767 24.253 21.1747 24.0452C21.5334 23.8625 21.825 23.5709 22.0077 23.2122C22.2155 22.8045 22.2155 22.2708 22.2155 21.2033V12.8166M16.4973 7.09843L22.2155 12.8166M16.4973 7.09843V11.2918C16.4973 11.8255 16.4973 12.0924 16.6012 12.2962C16.6925 12.4756 16.8383 12.6214 17.0176 12.7127C17.2215 12.8166 17.4884 12.8166 18.0221 12.8166H22.2155" stroke="white" stroke-width="1.5" stroke-linecap="round" stroke-linejoin="round"/>
</svg>
