<svg width="79" height="23" viewBox="0 0 79 23" fill="none" xmlns="http://www.w3.org/2000/svg">
<path d="M17.835 5.03976L9.54349 0.110145C9.28646 -0.0367151 8.97139 -0.0367151 8.71434 0.110145L0.422878 5.03976C0.164805 5.18355 0.00313086 5.45262 0 5.74634V18.892C0 19.1097 0.0870592 19.3192 0.242525 19.4733C0.397991 19.6273 0.609419 19.7136 0.829136 19.7136C0.933815 19.7146 1.03849 19.6951 1.13591 19.6561L3.31658 18.7934V22.1784C3.31761 22.4629 3.46686 22.7268 3.7125 22.8757C3.95709 23.0246 4.2618 23.038 4.51885 22.9096L9.12068 20.6338L13.7225 22.9096C13.8376 22.9682 13.9661 22.999 14.0956 23C14.2511 23 14.4034 22.9579 14.535 22.8768C14.7776 22.7268 14.9258 22.4619 14.9248 22.1784V18.7934L9.12073 16.4929L6.11087 17.6842L5.4973 16.156L8.81388 14.8415C9.01081 14.7634 9.23053 14.7634 9.42745 14.8415L14.9248 17.0187V7.38953C14.9237 7.11428 14.7838 6.85857 14.5517 6.70758L9.57678 3.42117C9.30004 3.24042 8.94145 3.24042 8.66472 3.42117L3.68984 6.70758C3.45768 6.85855 3.31777 7.11428 3.31673 7.38953V17.0187L1.65844 17.676V6.21457L9.12076 1.77791L16.5831 6.21457V15.6056H18.2414V5.74632C18.2414 5.4567 18.0868 5.18765 17.835 5.03976ZM7.46227 8.21102H10.7789V9.85423H7.46227V8.21102ZM5.80397 11.4974H12.4371V13.1406H5.80397V11.4974ZM16.5829 16.4271H18.2412V18.8919C18.2412 19.1096 18.1541 19.3191 17.9986 19.4731C17.8432 19.6272 17.6318 19.7135 17.412 19.7135C17.3074 19.7145 17.2027 19.695 17.1053 19.6559L14.6178 18.67L15.2314 17.1418L16.5829 17.6759L16.5829 16.4271Z" fill="#FFCC4A"/>
<path d="M30.6454 18V5.4H32.7334V16.128H38.1334V18H30.6454ZM44.8186 18.252C43.6186 18.252 42.5506 17.982 41.6146 17.442C40.6786 16.902 39.9436 16.143 39.4096 15.165C38.8756 14.181 38.6086 13.026 38.6086 11.7C38.6086 10.374 38.8756 9.222 39.4096 8.244C39.9436 7.26 40.6786 6.498 41.6146 5.958C42.5506 5.418 43.6186 5.148 44.8186 5.148C46.0186 5.148 47.0866 5.418 48.0226 5.958C48.9586 6.498 49.6936 7.26 50.2276 8.244C50.7616 9.222 51.0286 10.374 51.0286 11.7C51.0286 13.026 50.7616 14.181 50.2276 15.165C49.6936 16.143 48.9586 16.902 48.0226 17.442C47.0866 17.982 46.0186 18.252 44.8186 18.252ZM44.8186 16.227C45.7006 16.227 46.4386 16.032 47.0326 15.642C47.6266 15.246 48.0736 14.706 48.3736 14.022C48.6736 13.338 48.8236 12.564 48.8236 11.7C48.8236 10.836 48.6736 10.062 48.3736 9.378C48.0736 8.694 47.6266 8.157 47.0326 7.767C46.4386 7.371 45.7006 7.173 44.8186 7.173C43.9306 7.173 43.1896 7.371 42.5956 7.767C42.0016 8.157 41.5546 8.694 41.2546 9.378C40.9546 10.062 40.8046 10.836 40.8046 11.7C40.8046 12.564 40.9546 13.338 41.2546 14.022C41.5546 14.706 42.0016 15.246 42.5956 15.642C43.1896 16.032 43.9306 16.227 44.8186 16.227ZM58.6367 18.252C57.3647 18.252 56.2577 17.982 55.3157 17.442C54.3737 16.902 53.6417 16.14 53.1197 15.156C52.6037 14.172 52.3457 13.014 52.3457 11.682C52.3457 10.362 52.6247 9.213 53.1827 8.235C53.7467 7.257 54.5207 6.498 55.5047 5.958C56.4947 5.418 57.6287 5.148 58.9067 5.148C59.5787 5.148 60.2177 5.217 60.8237 5.355C61.4357 5.493 61.9637 5.667 62.4077 5.877L62.1917 7.821C61.7237 7.617 61.2167 7.449 60.6707 7.317C60.1247 7.185 59.5427 7.119 58.9247 7.119C57.9407 7.119 57.1307 7.32 56.4947 7.722C55.8647 8.124 55.3967 8.667 55.0907 9.351C54.7847 10.035 54.6317 10.806 54.6317 11.664C54.6317 12.558 54.7847 13.353 55.0907 14.049C55.4027 14.745 55.8707 15.291 56.4947 15.687C57.1247 16.083 57.9167 16.281 58.8707 16.281C59.1347 16.281 59.4317 16.26 59.7617 16.218C60.0917 16.176 60.4157 16.113 60.7337 16.029V13.455H58.9157V11.682H62.8217V17.298C62.3657 17.562 61.7747 17.787 61.0487 17.973C60.3227 18.159 59.5187 18.252 58.6367 18.252ZM70.5705 18.252C69.3705 18.252 68.3025 17.982 67.3665 17.442C66.4305 16.902 65.6955 16.143 65.1615 15.165C64.6275 14.181 64.3605 13.026 64.3605 11.7C64.3605 10.374 64.6275 9.222 65.1615 8.244C65.6955 7.26 66.4305 6.498 67.3665 5.958C68.3025 5.418 69.3705 5.148 70.5705 5.148C71.7705 5.148 72.8385 5.418 73.7745 5.958C74.7105 6.498 75.4455 7.26 75.9795 8.244C76.5135 9.222 76.7805 10.374 76.7805 11.7C76.7805 13.026 76.5135 14.181 75.9795 15.165C75.4455 16.143 74.7105 16.902 73.7745 17.442C72.8385 17.982 71.7705 18.252 70.5705 18.252ZM70.5705 16.227C71.4525 16.227 72.1905 16.032 72.7845 15.642C73.3785 15.246 73.8255 14.706 74.1255 14.022C74.4255 13.338 74.5755 12.564 74.5755 11.7C74.5755 10.836 74.4255 10.062 74.1255 9.378C73.8255 8.694 73.3785 8.157 72.7845 7.767C72.1905 7.371 71.4525 7.173 70.5705 7.173C69.6825 7.173 68.9415 7.371 68.3475 7.767C67.7535 8.157 67.3065 8.694 67.0065 9.378C66.7065 10.062 66.5565 10.836 66.5565 11.7C66.5565 12.564 66.7065 13.338 67.0065 14.022C67.3065 14.706 67.7535 15.246 68.3475 15.642C68.9415 16.032 69.6825 16.227 70.5705 16.227Z" fill="white"/>
</svg>
